{"title":"Airplane vs Volcano 2014 480p BRRip XviD AC3-N3kr4","uid":10234439,"size":1803731384,"categoryP":"video","categoryS":"hd___movies","magnet":"?xt=urn:btih:fb87082310c6c8b626abd8c8b71e4311f7b2fa2b&amp;dn=Airplane+vs+Volcano+2014+480p+BRRip+XviD+AC3-N3kr4&amp;tr=udp%3A%2F%2Ftracker.openbittorrent.com%3A80&amp;tr=udp%3A%2F%2Fopen.demonii.com%3A1337&amp;tr=udp%3A%2F%2Ftracker.coppersurfer.tk%3A6969&amp;tr=udp%3A%2F%2Fexodus.desync.com%3A6969","seeders":0,"leechers":0,"uploader":"Falcon.G13","files":2,"time":1401161434,"description":"Airplane vs Volcano (2014)\n91 min - Action - 28 March 2014 (USA)\n4.9 Your rating: -/10 Ratings: 4.9/10 from 58 users \nReviews: 2 user | 5 critic\n\nWhen a commercial airliner is trapped within \na ring of erupting volcanoes, the passengers \nand crew must find a way to survive - \nwithout landing. But when the relentless onslaught of lava ...\n &lt;a href=&quot;\nhttp://i.imgur.com/MxDe5Sq.jpg&quot; rel=&quot;nofollow&quot; target=&quot;_NEW&quot;&gt;\nhttp://i.imgur.com/MxDe5Sq.jpg&lt;/a&gt; &lt;a href=&quot;\nhttp://i.imgur.com/BRPa3vb.jpg&quot; rel=&quot;nofollow&quot; target=&quot;_NEW&quot;&gt;\nhttp://i.imgur.com/BRPa3vb.jpg&lt;/a&gt; &lt;a href=&quot;\nhttp://i.imgur.com/XO2gHBw.jpg&quot; rel=&quot;nofollow&quot; target=&quot;_NEW&quot;&gt;\nhttp://i.imgur.com/XO2gHBw.jpg&lt;/a&gt; &lt;a href=&quot;\nhttp://i.imgur.com/HkPC2fm.jpg&quot; rel=&quot;nofollow&quot; target=&quot;_NEW&quot;&gt;\nhttp://i.imgur.com/HkPC2fm.jpg&lt;/a&gt; &lt;a href=&quot;\nhttp://i.imgur.com/Vo3fzEW.jpg&quot; rel=&quot;nofollow&quot; target=&quot;_NEW&quot;&gt;\nhttp://i.imgur.com/Vo3fzEW.jpg&lt;/a&gt; &lt;a href=&quot;\nhttp://i.imgur.com/cUdHNV7.jpg&quot; rel=&quot;nofollow&quot; target=&quot;_NEW&quot;&gt;\nhttp://i.imgur.com/cUdHNV7.jpg&lt;/a&gt; &lt;a href=&quot;\nhttp://i.imgur.com/ee3zo6y.jpg&quot; rel=&quot;nofollow&quot; target=&quot;_NEW&quot;&gt;\nhttp://i.imgur.com/ee3zo6y.jpg&lt;/a&gt;\n\nGeneral\nComplete name : Airplane vs Volcano 2014 480p BRRip XviD AC3-N3kr4.avi\nFormat : AVI\nFormat/Info : Audio Video Interleave\nFormat profile : OpenDML\nFile size : 1.68 GiB\nDuration : 1h 30mn\nOverall bit rate : 2 649 Kbps\nWriting application : Lavf55.7.100\n\nVideo\nID : 0\nFormat : MPEG-4 Visual\nFormat profile : Advanced Simple@L1\nFormat settings, BVOP : No\nFormat settings, QPel : No\nFormat settings, GMC : No warppoints\nFormat settings, Matrix : Default (H.263)\nCodec ID : XVID\nCodec ID/Hint : XviD\nDuration : 1h 30mn\nBit rate : 1 997 Kbps\nWidth : 720 pixels\nHeight : 400 pixels\nDisplay aspect ratio : 16:9\nFrame rate : 23.976 fps\nColor space : YUV\nChroma subsampling : 4:2:0\nBit depth : 8 bits\nScan type : Progressive\nCompression mode : Lossy\nBits/(Pixel*Frame) : 0.289\nStream size : 1.27 GiB (75%)\nWriting library : Lavc55.12.100\n\nAudio\nID : 1\nFormat : AC-3\nFormat/Info : Audio Coding 3\nMode extension : CM (complete main)\nFormat settings, Endianness : Big\nCodec ID : 2000\nDuration : 1h 30mn\nBit rate mode : Constant\nBit rate : 640 Kbps\nChannel(s) : 6 channels\nChannel positions : Front: L C R, Side: L R, LFE\nSampling rate : 48.0 KHz\nBit depth : 16 bits\nCompression mode : Lossy\nStream size : 416 MiB (24%)\nAlignment : Aligned on interleaves\nInterleave, duration : 32 ms (0.77 video frame)\nInterleave, preload duration : 32 ms","torrent":{"xt":"urn:btih:fb87082310c6c8b626abd8c8b71e4311f7b2fa2b","amp;dn":"Airplane+vs+Volcano+2014+480p+BRRip+XviD+AC3-N3kr4","amp;tr":["udp%3A%2F%2Ftracker.openbittorrent.com%3A80","udp%3A%2F%2Fopen.demonii.com%3A1337","udp%3A%2F%2Ftracker.coppersurfer.tk%3A6969","udp%3A%2F%2Fexodus.desync.com%3A6969"],"infoHash":"fb87082310c6c8b626abd8c8b71e4311f7b2fa2b","infoHashBuffer":{"type":"Buffer","data":[251,135,8,35,16,198,200,182,38,171,216,200,183,30,67,17,247,178,250,43]},"announce":[],"urlList":[]}}